<svg width="24" height="24" viewBox="0 0 24 24" fill="none" xmlns="http://www.w3.org/2000/svg">
<path d="M12 10.4C12.4416 10.4 12.8 10.7584 12.8 11.2V15.2C12.8 15.6416 12.4416 16 12 16C11.5584 16 11.2 15.6416 11.2 15.2V11.2C11.2 10.7584 11.5584 10.4 12 10.4ZM12 8C12.4416 8 12.8 8.3584 12.8 8.8C12.8 9.2416 12.4416 9.6 12 9.6C11.5584 9.6 11.2 9.2416 11.2 8.8C11.2 8.3584 11.5584 8 12 8ZM12 18.4C8.4712 18.4 5.6 15.5288 5.6 12C5.6 8.4712 8.4712 5.6 12 5.6C15.5288 5.6 18.4 8.4712 18.4 12C18.4 15.5288 15.5288 18.4 12 18.4ZM12 4C7.5816 4 4 7.5816 4 12C4 16.4184 7.5816 20 12 20C16.4176 20 20 16.4184 20 12C20 7.5816 16.4176 4 12 4Z" />
</svg>
