<svg width="24" height="24" viewBox="0 0 24 24" fill="none" xmlns="http://www.w3.org/2000/svg">
<path fill-rule="evenodd" clip-rule="evenodd" d="M3.20011 3.69462L11.2001 0.1686C11.7101 -0.0561999 12.2899 -0.0562002 12.7999 0.1686L20.7999 3.69462C21.5288 4.01589 22 4.74285 22 5.54614V10.8349C22 16.7842 17.9622 22.3581 12.464 23.9348C12.1608 24.0217 11.8392 24.0217 11.536 23.9348L11.9495 22.4929C11.9825 22.5024 12.0175 22.5024 12.0505 22.4929C16.8645 21.1124 20.5 16.1586 20.5 10.8349V5.54614C20.5 5.33076 20.3739 5.1461 20.1949 5.06721L12.75 1.78585V13C12.75 13.4142 12.4142 13.75 12 13.75C11.5858 13.75 11.25 13.4142 11.25 13V1.78585L3.80508 5.06721C3.62611 5.1461 3.5 5.33077 3.5 5.54614V10.8349C3.5 16.1586 7.13567 21.1124 11.9495 22.4929L11.536 23.9348C6.03798 22.3581 2 16.7842 2 10.8349V5.54614C2 4.74285 2.4712 4.01589 3.20011 3.69462Z" fill="black"/>
</svg>
