<svg width="24" height="24" viewBox="0 0 24 24" fill="none" xmlns="http://www.w3.org/2000/svg">
<path d="M17.7838 6.2162C17.4955 5.92793 17.0281 5.92793 16.7399 6.2162L12 10.9561L7.26013 6.2162C6.97186 5.92793 6.50448 5.92793 6.2162 6.2162C5.92793 6.50448 5.92793 6.97186 6.2162 7.26013L10.9561 12L6.2162 16.7399C5.92793 17.0281 5.92793 17.4955 6.2162 17.7838C6.50448 18.0721 6.97185 18.0721 7.26013 17.7838L12 13.0439L16.7399 17.7838C17.0281 18.0721 17.4955 18.0721 17.7838 17.7838C18.0721 17.4955 18.0721 17.0281 17.7838 16.7399L13.0439 12L17.7838 7.26013C18.0721 6.97185 18.0721 6.50448 17.7838 6.2162Z" fill="black"/>
</svg>
