<svg width="28" height="28" viewBox="0 0 28 28" fill="none" xmlns="http://www.w3.org/2000/svg">
<rect x="0.5" y="0.5" width="27" height="27" rx="7.5" fill="black" stroke="#F2F6F9"/>
<path d="M17.7838 10.2162C17.4955 9.92793 17.0281 9.92793 16.7399 10.2162L14 12.9561L11.2601 10.2162C10.9719 9.92793 10.5045 9.92793 10.2162 10.2162C9.92793 10.5045 9.92793 10.9719 10.2162 11.2601L12.9561 14L10.2162 16.7399C9.92793 17.0281 9.92793 17.4955 10.2162 17.7838C10.5045 18.0721 10.9719 18.0721 11.2601 17.7838L14 15.0439L16.7399 17.7838C17.0281 18.0721 17.4955 18.0721 17.7838 17.7838C18.0721 17.4955 18.0721 17.0281 17.7838 16.7399L15.0439 14L17.7838 11.2601C18.0721 10.9719 18.0721 10.5045 17.7838 10.2162Z" fill="white"/>
</svg>
