<svg width="24" height="24" viewBox="0 0 24 24" fill="none" xmlns="http://www.w3.org/2000/svg">
<path d="M12.0001 11.1993C12.4417 11.1993 12.8001 11.5577 12.8001 11.9993C12.8001 12.4409 12.4417 12.7993 12.0001 12.7993C11.5585 12.7993 11.2001 12.4409 11.2001 11.9993C11.2001 11.5577 11.5585 11.1993 12.0001 11.1993ZM15.2 11.1993C15.6416 11.1993 16 11.5577 16 11.9993C16 12.4409 15.6416 12.7993 15.2 12.7993C14.7584 12.7993 14.4001 12.4409 14.4001 11.9993C14.4001 11.5577 14.7584 11.1993 15.2 11.1993ZM8.80011 11.1993C9.24171 11.1993 9.6001 11.5577 9.6001 11.9993C9.6001 12.4409 9.24171 12.7993 8.80011 12.7993C8.35851 12.7993 8.00012 12.4409 8.00012 11.9993C8.00012 11.5577 8.35851 11.1993 8.80011 11.1993ZM18.3187 13.0352C17.9131 15.6384 15.8148 17.7976 13.2156 18.2848C11.9604 18.5216 10.682 18.3864 9.52202 17.8952C9.19323 17.756 8.85323 17.6856 8.51963 17.6856C8.36763 17.6856 8.21724 17.7 8.06924 17.7296L5.81966 18.1792L6.27006 15.9256C6.36446 15.4576 6.30686 14.9568 6.10446 14.4776C5.61326 13.3176 5.47886 12.0401 5.71486 10.7841C6.20206 8.18489 8.36043 6.08652 10.9644 5.68092C13.0364 5.35852 15.0628 6.01132 16.5252 7.4737C17.9883 8.93689 18.6419 10.9641 18.3187 13.0352ZM17.6571 6.34251C15.8292 4.51533 13.3012 3.70014 10.718 4.09934C7.45644 4.60813 4.75247 7.2353 4.14208 10.4889C3.84768 12.0553 4.01728 13.6504 4.63087 15.1008C4.70847 15.2856 4.73247 15.4576 4.70207 15.612L4.01568 19.0424C3.96288 19.3048 4.04528 19.576 4.23488 19.7648C4.38608 19.9168 4.59007 19.9992 4.80047 19.9992C4.85247 19.9992 4.90447 19.9944 4.95727 19.984L8.38363 19.2984C8.58043 19.2608 8.77083 19.316 8.89803 19.3688C10.35 19.9824 11.9452 20.1512 13.51 19.8576C16.7643 19.2472 19.3915 16.5432 19.9003 13.2816C20.3019 10.7001 19.4851 8.17049 17.6571 6.34251Z" />
</svg>
