<svg width="24" height="24" viewBox="0 0 24 24" fill="none" xmlns="http://www.w3.org/2000/svg">
<path d="M5.2432 22.0742C4.85587 22.1863 4.56997 22.2368 4.37043 22.2477C4.50538 22.0843 4.66929 21.8838 4.86185 21.6466C5.08921 21.3665 5.3232 21.0689 5.5638 20.7538C5.81848 20.4203 6.04201 20.0861 6.23261 19.7509L6.23727 19.7427L6.24172 19.7344C6.35538 19.5223 6.43955 19.22 6.33014 18.8901C6.23108 18.5915 6.018 18.3954 5.79685 18.2821C4.7451 17.7259 3.84384 17.0563 3.08684 16.2756C2.33076 15.4958 1.75436 14.634 1.35117 13.6886L0.66572 13.9809L1.35117 13.6886C0.950755 12.7497 0.75 11.7604 0.75 10.7141C0.75 9.49442 1.02935 8.35717 1.58877 7.29167C2.15492 6.21336 2.94418 5.25946 3.9671 4.42972C4.99058 3.59952 6.18664 2.94308 7.56331 2.46486C8.92919 1.99038 10.4063 1.75 12 1.75C13.5937 1.75 15.0708 1.99038 16.4367 2.46486C17.8134 2.94308 19.0094 3.59952 20.0329 4.42972C21.0558 5.25946 21.8451 6.21336 22.4112 7.29167C22.9706 8.35718 23.25 9.49442 23.25 10.7141C23.25 11.6941 23.0721 12.6197 22.7184 13.497C22.3624 14.38 21.8483 15.1947 21.1702 15.9427L21.7258 16.4465L21.1702 15.9427C20.4911 16.6917 19.6726 17.3486 18.7082 17.9111C17.7487 18.4707 16.6653 18.9088 15.4527 19.2212C14.2479 19.5315 12.9439 19.6891 11.5376 19.6891C11.4131 19.6891 11.2908 19.6844 11.1707 19.6751C11.0368 19.6648 10.901 19.6527 10.7632 19.6388L10.7258 19.6351H10.6882C10.5273 19.6351 10.3734 19.6635 10.2295 19.7117C10.0702 19.7651 9.92572 19.8469 9.79997 19.9332C9.35044 20.2201 8.85728 20.504 8.31973 20.7845C7.77796 21.0672 7.23918 21.3213 6.70338 21.5471L6.99464 22.2382L6.70338 21.5471C6.16911 21.7722 5.68276 21.9471 5.2432 22.0742Z" stroke="black" stroke-width="1.5"/>
<rect x="7" y="8" width="10" height="1.5" rx="0.75" fill="black"/>
<rect x="7" y="13" width="8" height="1.5" rx="0.75" fill="black"/>
</svg>
