<svg width="15" height="14" viewBox="0 0 15 14" fill="none" xmlns="http://www.w3.org/2000/svg">
<path d="M6.42859 9.16615C5.23553 9.16615 4.26442 8.19504 4.26442 7.00199C4.26442 5.80893 5.23553 4.83782 6.42859 4.83782C7.62165 4.83782 8.59276 5.80893 8.59276 7.00199C8.59276 8.19504 7.62165 9.16615 6.42859 9.16615ZM7.66996 0.0312773C5.56881 -0.166165 3.51386 0.578095 2.03444 2.06802C0.554322 3.55724 -0.174536 5.61779 0.0355096 7.72034C0.286164 10.2213 1.8622 12.3988 4.1496 13.4021C5.0647 13.8033 6.03511 14 6.99852 14C8.51645 14 10.0183 13.5106 11.2582 12.5612C11.5656 12.3259 11.6237 11.8862 11.3885 11.5789C11.1532 11.2729 10.7142 11.2148 10.4069 11.4493C8.7839 12.6921 6.60223 12.947 4.71182 12.1194C2.91383 11.331 1.62625 9.54984 1.42881 7.58031C1.26077 5.89645 1.8433 4.24689 3.02796 3.05453C4.21121 1.86287 5.85797 1.26634 7.54043 1.42598C10.3795 1.68994 12.6025 4.20838 12.6025 7.15952V7.63212C12.6025 7.95979 12.4723 8.26506 12.2349 8.49191C11.9983 8.71876 11.6846 8.83498 11.3577 8.82098C10.7317 8.79367 10.222 8.20485 10.222 7.50889V4.48144C10.222 4.09426 9.90905 3.78129 9.52186 3.78129C9.16549 3.78129 8.88402 4.04945 8.83922 4.39392C8.20348 3.80579 7.36049 3.43751 6.42859 3.43751C4.46327 3.43751 2.86412 5.03736 2.86412 7.00199C2.86412 8.96731 4.46327 10.5665 6.42859 10.5665C7.61885 10.5665 8.66838 9.97413 9.31602 9.07513C9.76762 9.73328 10.4839 10.1842 11.296 10.2199C12.0053 10.2577 12.6872 9.99723 13.2033 9.50363C13.7193 9.01002 14.0028 8.34558 14.0028 7.63212V7.15952C14.0028 3.49283 11.2218 0.362449 7.66996 0.0312773Z" fill="black"/>
</svg>
