<svg width="16" height="16" viewBox="0 0 16 16" fill="none" xmlns="http://www.w3.org/2000/svg">
<rect width="16" height="16" fill="white"/>
<path d="M7.42859 10.1662C6.23553 10.1662 5.26442 9.19504 5.26442 8.00199C5.26442 6.80893 6.23553 5.83782 7.42859 5.83782C8.62165 5.83782 9.59276 6.80893 9.59276 8.00199C9.59276 9.19504 8.62165 10.1662 7.42859 10.1662ZM8.66996 1.03128C6.56881 0.833835 4.51386 1.5781 3.03444 3.06802C1.55432 4.55724 0.825464 6.61779 1.03551 8.72034C1.28616 11.2213 2.8622 13.3988 5.1496 14.4021C6.0647 14.8033 7.03511 15 7.99852 15C9.51645 15 11.0183 14.5106 12.2582 13.5612C12.5656 13.3259 12.6237 12.8862 12.3885 12.5789C12.1532 12.2729 11.7142 12.2148 11.4069 12.4493C9.7839 13.6921 7.60223 13.947 5.71182 13.1194C3.91383 12.331 2.62625 10.5498 2.42881 8.58031C2.26077 6.89645 2.8433 5.24689 4.02796 4.05453C5.21121 2.86287 6.85797 2.26634 8.54043 2.42598C11.3795 2.68994 13.6025 5.20838 13.6025 8.15952V8.63212C13.6025 8.95979 13.4723 9.26506 13.2349 9.49191C12.9983 9.71876 12.6846 9.83498 12.3577 9.82098C11.7317 9.79367 11.222 9.20485 11.222 8.50889V5.48144C11.222 5.09426 10.909 4.78129 10.5219 4.78129C10.1655 4.78129 9.88402 5.04945 9.83922 5.39392C9.20348 4.80579 8.36049 4.43751 7.42859 4.43751C5.46327 4.43751 3.86412 6.03736 3.86412 8.00199C3.86412 9.96731 5.46327 11.5665 7.42859 11.5665C8.61885 11.5665 9.66838 10.9741 10.316 10.0751C10.7676 10.7333 11.4839 11.1842 12.296 11.2199C13.0053 11.2577 13.6872 10.9972 14.2033 10.5036C14.7193 10.01 15.0028 9.34558 15.0028 8.63212V8.15952C15.0028 4.49283 12.2218 1.36245 8.66996 1.03128Z" fill="black"/>
</svg>
