<svg width="24" height="24" viewBox="0 0 24 24" fill="none" xmlns="http://www.w3.org/2000/svg">
<path fill-rule="evenodd" clip-rule="evenodd" d="M12 21.5C17.2467 21.5 21.5 17.2467 21.5 12C21.5 6.75329 17.2467 2.5 12 2.5C6.75329 2.5 2.5 6.75329 2.5 12C2.5 17.2467 6.75329 21.5 12 21.5ZM12 23C18.0751 23 23 18.0751 23 12C23 5.92487 18.0751 1 12 1C5.92487 1 1 5.92487 1 12C1 18.0751 5.92487 23 12 23Z" fill="black"/>
<path d="M6.5 7.75C6.08579 7.75 5.75 8.08579 5.75 8.5V15.5C5.75 15.9142 6.08579 16.25 6.5 16.25H10C10.4142 16.25 10.75 15.9142 10.75 15.5C10.75 15.0858 10.4142 14.75 10 14.75H7.25V12.75H9C9.41421 12.75 9.75 12.4142 9.75 12C9.75 11.5858 9.41421 11.25 9 11.25H7.25V9.25H10C10.4142 9.25 10.75 8.91421 10.75 8.5C10.75 8.08579 10.4142 7.75 10 7.75H6.5Z" fill="black"/>
<path d="M14.25 8.5C14.25 8.08579 13.9142 7.75 13.5 7.75C13.0858 7.75 12.75 8.08579 12.75 8.5V13.5C12.75 15.0188 13.9812 16.25 15.5 16.25C17.0188 16.25 18.25 15.0188 18.25 13.5V8.5C18.25 8.08579 17.9142 7.75 17.5 7.75C17.0858 7.75 16.75 8.08579 16.75 8.5V13.5C16.75 14.1904 16.1904 14.75 15.5 14.75C14.8096 14.75 14.25 14.1904 14.25 13.5V8.5Z" fill="black"/>
</svg>
