<svg width="16" height="16" viewBox="0 0 16 16" fill="none" xmlns="http://www.w3.org/2000/svg">
<rect width="16" height="16" fill="white"/>
<path d="M8.00012 8.95077C7.42122 8.95077 6.95011 8.47967 6.95011 7.90076C6.95011 7.32185 7.42122 6.85075 8.00012 6.85075C8.57903 6.85075 9.05014 7.32185 9.05014 7.90076C9.05014 8.47967 8.57903 8.95077 8.00012 8.95077ZM8.00012 5.45073C6.64911 5.45073 5.55009 6.54974 5.55009 7.90076C5.55009 9.25177 6.64911 10.3508 8.00012 10.3508C9.35114 10.3508 10.4502 9.25177 10.4502 7.90076C10.4502 6.54974 9.35114 5.45073 8.00012 5.45073ZM8.15391 11.3991C5.13968 11.4691 3.17335 8.89099 2.52094 7.89768C3.23915 6.77416 5.04798 4.47394 7.84661 4.40254C10.8489 4.32623 12.8265 6.91067 13.4789 7.90398C12.7614 9.02749 10.9518 11.3277 8.15391 11.3991ZM14.9076 7.55257C14.461 6.77416 11.9942 2.87232 7.81091 3.00322C3.94126 3.10122 1.69073 6.51026 1.09293 7.55257C0.969025 7.76818 0.969025 8.03348 1.09293 8.24908C1.53323 9.01699 3.91326 12.8005 8.01741 12.8005C8.07481 12.8005 8.13221 12.7998 8.18961 12.7984C12.0586 12.6997 14.3098 9.2914 14.9076 8.24908C15.0308 8.03348 15.0308 7.76818 14.9076 7.55257Z" fill="black"/>
</svg>
