<svg width="32" height="32" viewBox="0 0 32 32" fill="none" xmlns="http://www.w3.org/2000/svg">
<path d="M32 8C32 3.58172 28.4183 0 24 0H8C3.58172 0 0 3.58172 0 8V24C0 28.4183 3.58172 32 8 32H24C28.4183 32 32 28.4183 32 24V8Z" fill="#0084FF"/>
<path d="M16.0625 5.8125C10.5051 5.8125 6 10.0098 6 15.1875C6 18.1378 7.46325 20.7694 9.75 22.4879V26.0625L13.1762 24.1704C14.0906 24.4251 15.0592 24.5625 16.0625 24.5625C21.6199 24.5625 26.125 20.3652 26.125 15.1875C26.125 10.0098 21.6199 5.8125 16.0625 5.8125ZM17.0625 18.4375L14.5 15.6875L9.5 18.4375L15 12.5625L17.625 15.3125L22.5625 12.5625L17.0625 18.4375Z" fill="white"/>
</svg>
