<svg width="32" height="32" viewBox="0 0 32 32" fill="none" xmlns="http://www.w3.org/2000/svg">
<rect width="32" height="32" rx="8" fill="#FA4504" fill-opacity="0.2"/>
<path d="M14.8461 21.6H16.3846V17.26C16.3846 16.8729 16.7284 16.56 17.1538 16.56H18.8769L19.2192 15.44H17.1538C16.7284 15.44 16.3846 15.1271 16.3846 14.74V12.85C16.3846 12.1164 17.0746 11.52 17.923 11.52H19.4615V10.4H17.923C16.2261 10.4 14.8461 11.499 14.8461 12.85V14.74C14.8461 15.1271 14.5023 15.44 14.0769 15.44H12.5385V16.56H14.0769C14.5023 16.56 14.8461 16.8729 14.8461 17.26V21.6ZM17.1538 23H14.0769C13.6515 23 13.3077 22.6871 13.3077 22.3V17.96H11.7692C11.3438 17.96 11 17.6471 11 17.26V14.74C11 14.3529 11.3438 14.04 11.7692 14.04H13.3077V12.85C13.3077 10.7276 15.3777 9 17.923 9H20.2307C20.6561 9 21 9.3129 21 9.7V12.22C21 12.6064 20.6561 12.92 20.2307 12.92H17.923V14.04H20.2307C20.4707 14.04 20.6976 14.1429 20.843 14.3165C20.9884 14.4908 21.0361 14.7169 20.9723 14.9276L20.203 17.4469C20.1107 17.75 19.8069 17.96 19.4615 17.96H17.923V22.3C17.923 22.6871 17.5792 23 17.1538 23Z" fill="#FA4504"/>
</svg>
