<svg width="40" height="40" viewBox="0 0 40 40" fill="none" xmlns="http://www.w3.org/2000/svg">
<path d="M19.9999 27C19.7872 27 19.584 26.9135 19.4337 26.7579L13.2213 20.3508C11.5929 18.6708 11.5929 15.9375 13.2213 14.2575C14.0076 13.4472 15.0578 13 16.1767 13C17.2957 13 18.3459 13.4472 19.1321 14.2575L19.9999 15.1527L20.867 14.2584C21.654 13.4472 22.7042 13 23.8232 13C24.9421 13 25.9923 13.4472 26.7786 14.2575C28.407 15.9375 28.407 18.6708 26.7794 20.3508L20.5662 26.7587C20.4159 26.9135 20.2127 27 19.9999 27Z" fill="#FA4504"/>
</svg>
