<svg width="24" height="24" viewBox="0 0 24 24" fill="none" xmlns="http://www.w3.org/2000/svg">
<path fill-rule="evenodd" clip-rule="evenodd" d="M11.9984 5.93699L17.4444 11.6941L17.4367 18.399H15.1111V12.7956C15.1111 12.3529 14.7627 11.9951 14.3333 11.9951H9.66667C9.23656 11.9951 8.88889 12.3529 8.88889 12.7956V18.399H6.55556L6.56022 11.6613L11.9984 5.93699ZM13.5556 13.5961V18.399C12.3406 18.399 11.6594 18.399 10.4444 18.399V13.5961H13.5556ZM18.552 10.5422L12.5561 4.23114C12.2629 3.92295 11.7371 3.92295 11.4439 4.23114L5.44722 10.543C5.16333 10.8432 5 11.2626 5 11.6941V18.399C5 19.282 5.65878 20 6.46844 20H9.66667C11.4891 20 12.5109 20 14.3333 20H17.5308C18.3404 20 19 19.282 19 18.399V11.6941C19 11.2626 18.8367 10.8432 18.552 10.5422Z" />
</svg>
