<svg width="16" height="16" viewBox="0 0 16 16" fill="none" xmlns="http://www.w3.org/2000/svg">
<rect width="16" height="16" fill="white"/>
<path d="M8 6.6C8.3864 6.6 8.7 6.9136 8.7 7.3V10.8C8.7 11.1864 8.3864 11.5 8 11.5C7.6136 11.5 7.3 11.1864 7.3 10.8V7.3C7.3 6.9136 7.6136 6.6 8 6.6ZM8 4.5C8.3864 4.5 8.7 4.8136 8.7 5.2C8.7 5.5864 8.3864 5.9 8 5.9C7.6136 5.9 7.3 5.5864 7.3 5.2C7.3 4.8136 7.6136 4.5 8 4.5ZM8 13.6C4.9123 13.6 2.4 11.0877 2.4 8C2.4 4.9123 4.9123 2.4 8 2.4C11.0877 2.4 13.6 4.9123 13.6 8C13.6 11.0877 11.0877 13.6 8 13.6ZM8 1C4.1339 1 1 4.1339 1 8C1 11.8661 4.1339 15 8 15C11.8654 15 15 11.8661 15 8C15 4.1339 11.8654 1 8 1Z" fill="#BDBDBD"/>
</svg>
