<svg width="32" height="32" viewBox="0 0 32 32" fill="none" xmlns="http://www.w3.org/2000/svg">
<rect width="32" height="32" rx="8" fill="#FA4504" fill-opacity="0.2"/>
<path d="M19.7622 12.7039C20.0197 12.7039 20.2285 12.4951 20.2285 12.2375C20.2285 11.9799 20.0197 11.7711 19.7622 11.7711C19.5046 11.7711 19.2958 11.9799 19.2958 12.2375C19.2958 12.4951 19.5046 12.7039 19.7622 12.7039Z" fill="#FA4504"/>
<path d="M16 12.5C14.0671 12.5 12.5 14.0671 12.5 16C12.5 17.9329 14.0671 19.5 16 19.5C17.9329 19.5 19.5 17.9329 19.5 16C19.5 14.0671 17.9329 12.5 16 12.5ZM16 18.1875C14.7943 18.1875 13.8125 17.2057 13.8125 16C13.8125 14.7934 14.7943 13.8125 16 13.8125C17.2057 13.8125 18.1875 14.7934 18.1875 16C18.1875 17.2057 17.2057 18.1875 16 18.1875Z" fill="#FA4504"/>
<path d="M18.625 9H13.375C10.9591 9 9 10.9591 9 13.375V18.625C9 21.0409 10.9591 23 13.375 23H18.625C21.0409 23 23 21.0409 23 18.625V13.375C23 10.9591 21.0409 9 18.625 9ZM21.6875 18.625C21.6875 20.3138 20.3138 21.6875 18.625 21.6875H13.375C11.6862 21.6875 10.3125 20.3138 10.3125 18.625V13.375C10.3125 11.6862 11.6862 10.3125 13.375 10.3125H18.625C20.3138 10.3125 21.6875 11.6862 21.6875 13.375V18.625Z" fill="#FA4504"/>
</svg>
