<svg width="16" height="16" viewBox="0 0 16 16" fill="none" xmlns="http://www.w3.org/2000/svg">
<rect width="16" height="16" fill="white"/>
<path fill-rule="evenodd" clip-rule="evenodd" d="M9.28671 5.89531C9.28671 7.78783 7.75902 9.32203 5.87453 9.32203C3.99004 9.32203 2.46236 7.78783 2.46236 5.89531C2.46236 4.00279 3.99004 2.46859 5.87453 2.46859C7.75902 2.46859 9.28671 4.00279 9.28671 5.89531ZM8.93415 9.70641C8.09764 10.3846 7.0333 10.7906 5.87453 10.7906C3.1824 10.7906 1 8.59891 1 5.89531C1 3.1917 3.1824 1 5.87453 1C8.56666 1 10.7491 3.1917 10.7491 5.89531C10.7491 6.87763 10.461 7.79237 9.96498 8.55896L14.8501 13.4649C15.0501 13.6658 15.0501 13.9915 14.8501 14.1924L14.4879 14.5562C14.2878 14.7571 13.9634 14.7571 13.7634 14.5562L12.0505 12.8353L10.0345 14.8502C9.83394 15.0506 9.50959 15.0498 9.31005 14.8484L8.94873 14.4837C8.74918 14.2823 8.75 13.9565 8.95056 13.7561L10.9634 11.7446L8.93415 9.70641Z" fill="#FA4504"/>
</svg>
