<svg width="40" height="40" viewBox="0 0 40 40" fill="none" xmlns="http://www.w3.org/2000/svg">
<rect width="40" height="40" rx="8" fill="#FFEBE0"/>
<path d="M19.9721 26.2358L19.9731 26.2368C19.979 26.2429 19.9842 26.246 19.988 26.2476C19.9917 26.2492 19.9956 26.25 19.9999 26.25C20.0043 26.25 20.0084 26.2492 20.0126 26.2474C20.0167 26.2456 20.0221 26.2424 20.028 26.2364C20.0281 26.2363 20.0282 26.2362 20.0282 26.2362L26.2407 19.8289C26.2408 19.8289 26.2408 19.8288 26.2409 19.8287C27.5865 18.4396 27.5865 16.1686 26.24 14.7795C25.5935 14.1133 24.7369 13.75 23.8232 13.75C22.9095 13.75 22.0529 14.1132 21.4055 14.7804C21.4054 14.7805 21.4053 14.7805 21.4052 14.7806L20.5384 15.6747L20 16.2302L19.4615 15.6747L18.5938 14.7798C18.5938 14.7797 18.5937 14.7796 18.5936 14.7796C17.9471 14.1133 17.0905 13.75 16.1767 13.75C15.263 13.75 14.4064 14.1133 13.7599 14.7795L19.9721 26.2358ZM19.9721 26.2358L13.7599 19.8288M19.9721 26.2358L13.7599 19.8288M13.7599 19.8288C12.4135 18.4398 12.4134 16.1689 13.7596 14.7798L13.7599 19.8288Z" stroke="black" stroke-width="1.5"/>
</svg>
