<svg width="16" height="16" viewBox="0 0 16 16" fill="none" xmlns="http://www.w3.org/2000/svg">
<rect width="16" height="16" fill="white"/>
<path d="M8 10.8C7.586 10.8 7.25 10.4864 7.25 10.1C7.25 9.7136 7.586 9.4 8 9.4C8.414 9.4 8.75 9.7136 8.75 10.1C8.75 10.4864 8.414 10.8 8 10.8ZM8 8C6.7595 8 5.75 8.9422 5.75 10.1C5.75 11.2578 6.7595 12.2 8 12.2C9.2405 12.2 10.25 11.2578 10.25 10.1C10.25 8.9422 9.2405 8 8 8ZM12.5 12.9C12.5 13.2864 12.164 13.6 11.75 13.6H4.25C3.836 13.6 3.5 13.2864 3.5 12.9V7.3C3.5 6.9136 3.836 6.6 4.25 6.6H5H6.5H9.5H11H11.75C12.164 6.6 12.5 6.9136 12.5 7.3V12.9ZM6.5 3.8777C6.5 3.0629 7.17275 2.4 8 2.4C8.82725 2.4 9.5 3.0629 9.5 3.8777V5.2H6.5V3.8777ZM11.75 5.2H11V3.8777C11 2.2915 9.6545 1 8 1C6.3455 1 5 2.2915 5 3.8777V5.2H4.25C3.0095 5.2 2 6.1422 2 7.3V12.9C2 14.0578 3.0095 15 4.25 15H11.75C12.9905 15 14 14.0578 14 12.9V7.3C14 6.1422 12.9905 5.2 11.75 5.2Z" fill="black"/>
</svg>
