<svg width="24" height="24" viewBox="0 0 24 24" fill="none" xmlns="http://www.w3.org/2000/svg">
<rect width="24" height="24" fill="black"/>
<path d="M3 12.5882C3 17.7862 7.25329 22 12.5 22C17.7467 22 22 17.7862 22 12.5882C22 7.39026 17.7467 3.17647 12.5 3.17647C9.49992 3.17647 6.82464 4.55421 5.08362 6.70588M5.08362 6.70588V2M5.08362 6.70588H10.125" stroke="white" stroke-width="1.5" stroke-linecap="round" stroke-linejoin="round"/>
<path d="M9.30434 15.3324V11.0714L9.9311 11.1291L8.0847 12.1923V11.0632L9.85487 10.0577H10.6256V15.3324H9.30434ZM8 15.9258V14.8956H11.9384V15.9258H8Z" fill="white"/>
<path d="M14.7471 16C14.0187 16 13.4597 15.7445 13.0701 15.2335C12.6861 14.717 12.4941 13.967 12.4941 12.9835C12.4941 12.0165 12.6861 11.2775 13.0701 10.7665C13.4597 10.2555 14.0187 10 14.7471 10C15.4755 10 16.0316 10.2555 16.4156 10.7665C16.8052 11.2775 17 12.0165 17 12.9835C17 13.9615 16.8052 14.7088 16.4156 15.2253C16.0316 15.7418 15.4755 16 14.7471 16ZM14.7471 15.011C15.0802 15.011 15.323 14.8516 15.4755 14.533C15.6279 14.2143 15.7041 13.6978 15.7041 12.9835C15.7041 12.2857 15.6279 11.7775 15.4755 11.4588C15.323 11.1401 15.0802 10.9808 14.7471 10.9808C14.4139 10.9808 14.1711 11.1401 14.0187 11.4588C13.8662 11.7775 13.79 12.2857 13.79 12.9835C13.79 13.6978 13.8662 14.2143 14.0187 14.533C14.1711 14.8516 14.4139 15.011 14.7471 15.011Z" fill="white"/>
</svg>
