<svg width="24" height="24" viewBox="0 0 24 24" fill="none" xmlns="http://www.w3.org/2000/svg">
<path d="M22.6391 0.110916C22.7913 0.204343 22.8984 0.343343 22.9537 0.499543C22.9561 0.507651 22.959 0.516296 22.9618 0.525007C22.9693 0.547671 22.9753 0.570367 22.9802 0.593296C22.9826 0.605392 22.9848 0.617298 22.9868 0.629294C22.9898 0.646287 22.992 0.663644 22.9936 0.681073C22.9954 0.701362 22.9965 0.721665 22.9967 0.742143C22.9969 0.754204 22.9968 0.766273 22.9964 0.778347C22.996 0.785976 22.9956 0.793723 22.9951 0.801489L22.9282 1.72902C21.7574 16.6981 16.7796 22.8125 8.06136 19.3544C7.67633 19.2016 7.48801 18.7657 7.64073 18.3807C7.79345 17.9957 8.22939 17.8073 8.61442 17.9601C15.4549 20.6733 19.5954 16.5398 21.0865 5.01061C19.7667 7.28069 18.0749 9.25037 15.9757 11.0747C16.8013 10.9727 17.456 11.075 17.9528 11.3903C18.3025 11.6123 18.406 12.0757 18.1841 12.4254C17.9621 12.7752 17.4987 12.8787 17.1489 12.6568L17.0813 12.6198C16.4553 12.3256 14.8037 12.7215 12.2784 13.928L11.9821 14.0725C10.155 15.2638 6.84723 17.3023 5.85686 17.9479L5.67309 18.0699C2.97385 19.9139 1.51022 21.4139 1.51022 23.2501C1.51022 23.6643 1.17444 24.0001 0.760223 24.0001C0.34601 24.0001 0 23.6643 0 23.2501C0 20.8697 1.66316 19.0508 4.52545 17.0401L4.82693 16.8313C5.33977 16.481 7.45283 15.1723 9.30763 14.0014L9.23403 14.1596C9.9587 12.6472 10.0977 11.5661 9.75245 10.8926L9.69044 10.7841C9.46847 10.4344 9.57203 9.97094 9.92175 9.74897C10.2715 9.527 10.7349 9.63056 10.9569 9.98027C11.4304 10.7264 11.5446 11.6379 11.3284 12.708C11.501 12.5945 11.656 12.4913 11.7901 12.4003L11.935 12.301C15.3958 9.90159 17.9674 7.3803 19.7815 4.27012C18.2815 5.21766 16.3782 5.93341 13.916 6.59589L13.2612 6.76766L11.508 7.20564C4.46221 8.95399 2.654 10.5072 4.04112 15.7801C4.1465 16.1807 3.90719 16.5909 3.5066 16.6963C3.10602 16.8016 2.69585 16.5623 2.59047 16.1617C1.67506 12.6819 2.23755 10.2336 4.18081 8.56433C5.5844 7.35868 7.23958 6.7338 10.7621 5.84596L12.6516 5.37516C12.8134 5.3341 12.9654 5.2951 13.114 5.25644C17.6391 4.07954 20.1064 2.80339 21.6076 0.357759C21.8242 0.00474408 22.2861 -0.105771 22.6391 0.110916Z" fill="black"/>
<path d="M0 0V-1H-1V0H0ZM24 0H25V-1H24V0ZM24 24.0001V25.0001H25V24.0001H24ZM0 24.0001H-1V25.0001H0V24.0001ZM0 1H24V-1H0V1ZM23 0V24.0001H25V0H23ZM24 23.0001H0V25.0001H24V23.0001ZM1 24.0001V0H-1V24.0001H1Z" fill="white"/>
</svg>
