<svg width="16" height="16" viewBox="0 0 16 16" fill="none" xmlns="http://www.w3.org/2000/svg">
<rect width="16" height="16" fill="white"/>
<path d="M12.5181 8.10775C13.8443 7.0582 14.7659 5.5583 14.9938 3.83324C15.0475 3.42809 14.7457 3.05774 14.3187 3.00663C13.8987 2.95182 13.5036 3.24291 13.4507 3.64881C13.1093 6.23529 10.7658 8.18553 8 8.18553C5.23421 8.18553 2.89075 6.23529 2.5493 3.64881C2.49641 3.24291 2.09974 2.95479 1.68052 3.00663C1.25429 3.05774 0.952513 3.42809 1.00618 3.83324C1.23407 5.5583 2.15574 7.0582 3.48186 8.10775L1.68363 9.82023C1.38107 10.1084 1.38107 10.5794 1.68363 10.8676C1.98541 11.1557 2.48086 11.1557 2.78341 10.8676L4.80798 8.93955C5.54999 9.29656 6.36432 9.5321 7.22222 9.62172V12.2593C7.22222 12.6667 7.57222 13 8 13C8.42778 13 8.77778 12.6667 8.77778 12.2593V9.62172C9.6349 9.5321 10.45 9.29656 11.1912 8.93955L13.2166 10.8676C13.5191 11.1557 14.0138 11.1557 14.3164 10.8676C14.6189 10.5794 14.6189 10.1084 14.3164 9.82023L12.5181 8.10775Z" fill="#BDBDBD"/>
</svg>
