<svg width="28" height="28" viewBox="0 0 28 28" fill="none" xmlns="http://www.w3.org/2000/svg">
<rect width="28" height="28" rx="8" fill="white"/>
<path d="M8.5536 16.5122L8.77694 16.292L8.77701 15.9784L8.7779 11.8857V11.8855C8.7779 10.4148 9.42516 9.0074 10.5639 8.02579L10.5643 8.02544C11.6944 7.04974 13.2047 6.59869 14.703 6.79514L14.7036 6.79522C17.2655 7.1289 19.2239 9.38582 19.2239 12.0693V15.9782V16.292L19.4473 16.5122L21.0482 18.0909L21.0487 18.0913C21.2473 18.2868 21.3036 18.5723 21.1967 18.8255L21.1965 18.8261C21.0897 19.0797 20.839 19.25 20.5455 19.25H17.5561H15.7783H12.2226H10.4448H7.45544C7.16183 19.25 6.91003 19.0796 6.80248 18.8248C6.69706 18.5738 6.75242 18.2885 6.95268 18.0909C6.95272 18.0908 6.95276 18.0908 6.9528 18.0907L8.5536 16.5122Z" stroke="black" stroke-width="1.5"/>
<path d="M16 20C16 21.1046 15.1046 22 14 22C12.8954 22 12 21.1046 12 20" stroke="black" stroke-width="1.5"/>
</svg>
