<svg width="14" height="15" viewBox="0 0 14 15" fill="none" xmlns="http://www.w3.org/2000/svg">
<path d="M2.29469 9.09219L2.52356 8.87112L2.52363 8.55292L2.52441 5.04492V5.04475C2.52441 3.82152 3.07381 2.64581 4.04878 1.8225L4.04919 1.82215C5.01733 1.0034 6.31495 0.622352 7.60487 0.788035L7.6055 0.788115C9.80952 1.06933 11.4772 2.96661 11.4772 5.20226V8.55275V8.87105L11.7061 9.09219L13.1069 10.4453L13.1074 10.4457C13.2505 10.5837 13.2862 10.7765 13.2129 10.9465L13.2127 10.9471C13.1381 11.1206 12.956 11.25 12.7273 11.25H10.1116H8.55599H5.44482H3.88923H1.27351C1.04489 11.25 0.861824 11.1207 0.786488 10.9462C0.714387 10.7782 0.749077 10.5852 0.894013 10.4452L2.29469 9.09219Z" stroke="#FA4504" stroke-width="1.5"/>
<path d="M9 12C9 13.1046 8.10457 14 7 14C5.89543 14 5 13.1046 5 12" stroke="#FA4504" stroke-width="1.5"/>
</svg>
