<svg width="16" height="16" viewBox="0 0 16 16" fill="none" xmlns="http://www.w3.org/2000/svg">
<rect width="16" height="16" fill="white"/>
<path d="M3.29469 10.0922L3.52356 9.87112L3.52363 9.55292L3.52441 6.04492V6.04475C3.52441 4.82152 4.07381 3.64581 5.04878 2.8225L5.04919 2.82215C6.01733 2.0034 7.31495 1.62235 8.60487 1.78803L8.6055 1.78811C10.8095 2.06933 12.4772 3.96661 12.4772 6.20226V9.55275V9.87105L12.7061 10.0922L14.1069 11.4453L14.1074 11.4457C14.2505 11.5837 14.2862 11.7765 14.2129 11.9465L14.2127 11.9471C14.1381 12.1206 13.956 12.25 13.7273 12.25H11.1116H9.55599H6.44482H4.88923H2.27351C2.04489 12.25 1.86182 12.1207 1.78649 11.9462C1.71439 11.7782 1.74908 11.5852 1.89401 11.4452L3.29469 10.0922Z" stroke="#FA4504" stroke-width="1.5"/>
<path d="M10 13C10 14.1046 9.10457 15 8 15C6.89543 15 6 14.1046 6 13" stroke="#FA4504" stroke-width="1.5"/>
</svg>
