<svg width="16" height="14" viewBox="0 0 16 14" fill="none" xmlns="http://www.w3.org/2000/svg">
<path d="M8 9.72222C7.3384 9.72222 6.8 9.19878 6.8 8.55556C6.8 7.91233 7.3384 7.38889 8 7.38889C8.6616 7.38889 9.2 7.91233 9.2 8.55556C9.2 9.19878 8.6616 9.72222 8 9.72222ZM8 5.83333C6.456 5.83333 5.2 7.05444 5.2 8.55556C5.2 10.0567 6.456 11.2778 8 11.2778C9.544 11.2778 10.8 10.0567 10.8 8.55556C10.8 7.05444 9.544 5.83333 8 5.83333ZM14.4 11.6667C14.4 12.0952 14.0416 12.4444 13.6 12.4444H2.4C1.9584 12.4444 1.6 12.0952 1.6 11.6667V5.44444C1.6 5.01589 1.9584 4.66667 2.4 4.66667H13.6C14.0416 4.66667 14.4 5.01589 14.4 5.44444V11.6667ZM6.4 1.94444C6.4 1.72978 6.58 1.55556 6.8 1.55556H9.2C9.42 1.55556 9.6 1.72978 9.6 1.94444V3.11111H6.4V1.94444ZM13.6 3.11111H11.2V1.94444C11.2 0.872667 10.3032 0 9.2 0H6.8C5.6968 0 4.8 0.872667 4.8 1.94444V3.11111H2.4C1.0768 3.11111 0 4.158 0 5.44444V11.6667C0 12.9531 1.0768 14 2.4 14H13.6C14.9232 14 16 12.9531 16 11.6667V5.44444C16 4.158 14.9232 3.11111 13.6 3.11111Z" fill="#FA4504"/>
</svg>
