<svg width="24" height="24" viewBox="0 0 24 24" fill="none" xmlns="http://www.w3.org/2000/svg">
<rect width="24" height="24" fill="white"/>
<path d="M12 14.7222C11.3384 14.7222 10.8 14.1988 10.8 13.5556C10.8 12.9123 11.3384 12.3889 12 12.3889C12.6616 12.3889 13.2 12.9123 13.2 13.5556C13.2 14.1988 12.6616 14.7222 12 14.7222ZM12 10.8333C10.456 10.8333 9.2 12.0544 9.2 13.5556C9.2 15.0567 10.456 16.2778 12 16.2778C13.544 16.2778 14.8 15.0567 14.8 13.5556C14.8 12.0544 13.544 10.8333 12 10.8333ZM18.4 16.6667C18.4 17.0952 18.0416 17.4444 17.6 17.4444H6.4C5.9584 17.4444 5.6 17.0952 5.6 16.6667V10.4444C5.6 10.0159 5.9584 9.66667 6.4 9.66667H17.6C18.0416 9.66667 18.4 10.0159 18.4 10.4444V16.6667ZM10.4 6.94444C10.4 6.72978 10.58 6.55556 10.8 6.55556H13.2C13.42 6.55556 13.6 6.72978 13.6 6.94444V8.11111H10.4V6.94444ZM17.6 8.11111H15.2V6.94444C15.2 5.87267 14.3032 5 13.2 5H10.8C9.6968 5 8.8 5.87267 8.8 6.94444V8.11111H6.4C5.0768 8.11111 4 9.158 4 10.4444V16.6667C4 17.9531 5.0768 19 6.4 19H17.6C18.9232 19 20 17.9531 20 16.6667V10.4444C20 9.158 18.9232 8.11111 17.6 8.11111Z" fill="#FA4504"/>
</svg>
