<svg width="48" height="48" viewBox="0 0 48 48" fill="none" xmlns="http://www.w3.org/2000/svg">
<mask id="mask0" mask-type="alpha" maskUnits="userSpaceOnUse" x="0" y="0" width="48" height="48">
<rect x="0.5" y="0.5" width="47" height="47" rx="7.5" fill="white" stroke="#F8F8F8"/>
</mask>
<g mask="url(#mask0)">
<rect x="0.5" y="0.5" width="47" height="47" rx="7.5" fill="white" stroke="#F8F8F8"/>
<rect x="12" y="12" width="24" height="24" fill="white"/>
<path d="M24 26.7222C23.3384 26.7222 22.8 26.1988 22.8 25.5556C22.8 24.9123 23.3384 24.3889 24 24.3889C24.6616 24.3889 25.2 24.9123 25.2 25.5556C25.2 26.1988 24.6616 26.7222 24 26.7222ZM24 22.8333C22.456 22.8333 21.2 24.0544 21.2 25.5556C21.2 27.0567 22.456 28.2778 24 28.2778C25.544 28.2778 26.8 27.0567 26.8 25.5556C26.8 24.0544 25.544 22.8333 24 22.8333ZM30.4 28.6667C30.4 29.0952 30.0416 29.4444 29.6 29.4444H18.4C17.9584 29.4444 17.6 29.0952 17.6 28.6667V22.4444C17.6 22.0159 17.9584 21.6667 18.4 21.6667H29.6C30.0416 21.6667 30.4 22.0159 30.4 22.4444V28.6667ZM22.4 18.9444C22.4 18.7298 22.58 18.5556 22.8 18.5556H25.2C25.42 18.5556 25.6 18.7298 25.6 18.9444V20.1111H22.4V18.9444ZM29.6 20.1111H27.2V18.9444C27.2 17.8727 26.3032 17 25.2 17H22.8C21.6968 17 20.8 17.8727 20.8 18.9444V20.1111H18.4C17.0768 20.1111 16 21.158 16 22.4444V28.6667C16 29.9531 17.0768 31 18.4 31H29.6C30.9232 31 32 29.9531 32 28.6667V22.4444C32 21.158 30.9232 20.1111 29.6 20.1111Z" fill="black"/>
</g>
</svg>
