<svg width="24" height="24" viewBox="0 0 24 24" fill="none" xmlns="http://www.w3.org/2000/svg">
<path d="M21 12.5882C21 17.7862 16.7467 22 11.5 22C6.25329 22 2 17.7862 2 12.5882C2 7.39026 6.25329 3.17647 11.5 3.17647C14.5001 3.17647 17.1754 4.55421 18.9164 6.70588M18.9164 6.70588V2M18.9164 6.70588H13.875" stroke="white" stroke-width="1.5" stroke-linecap="round" stroke-linejoin="round"/>
<path d="M8.30434 15.3324V11.0714L8.9311 11.1291L7.0847 12.1923V11.0632L8.85487 10.0577H9.62561V15.3324H8.30434ZM7 15.9258V14.8956H10.9384V15.9258H7Z" fill="white"/>
<path d="M13.7471 16C13.0187 16 12.4597 15.7445 12.0701 15.2335C11.6861 14.717 11.4941 13.967 11.4941 12.9835C11.4941 12.0165 11.6861 11.2775 12.0701 10.7665C12.4597 10.2555 13.0187 10 13.7471 10C14.4755 10 15.0316 10.2555 15.4156 10.7665C15.8052 11.2775 16 12.0165 16 12.9835C16 13.9615 15.8052 14.7088 15.4156 15.2253C15.0316 15.7418 14.4755 16 13.7471 16ZM13.7471 15.011C14.0802 15.011 14.323 14.8516 14.4755 14.533C14.6279 14.2143 14.7041 13.6978 14.7041 12.9835C14.7041 12.2857 14.6279 11.7775 14.4755 11.4588C14.323 11.1401 14.0802 10.9808 13.7471 10.9808C13.4139 10.9808 13.1711 11.1401 13.0187 11.4588C12.8662 11.7775 12.79 12.2857 12.79 12.9835C12.79 13.6978 12.8662 14.2143 13.0187 14.533C13.1711 14.8516 13.4139 15.011 13.7471 15.011Z" fill="white"/>
</svg>
