<svg width="16" height="16" viewBox="0 0 16 16" fill="none" xmlns="http://www.w3.org/2000/svg">
<rect width="16" height="16" fill="white"/>
<path fill-rule="evenodd" clip-rule="evenodd" d="M13.5 14.2222C13.5 14.6516 13.1488 15 12.7143 15C12.2798 15 11.9286 14.6516 11.9286 14.2222C11.9286 12.0779 10.1662 10.3333 8 10.3333C5.83379 10.3333 4.07143 12.0779 4.07143 14.2222C4.07143 14.6516 3.72021 15 3.28571 15C2.85121 15 2.5 14.6516 2.5 14.2222C2.5 11.22 4.96793 8.77778 8 8.77778C11.0321 8.77778 13.5 11.22 13.5 14.2222ZM8 2.55556C8.86664 2.55556 9.57143 3.25322 9.57143 4.11111C9.57143 4.969 8.86664 5.66667 8 5.66667C7.13336 5.66667 6.42857 4.969 6.42857 4.11111C6.42857 3.25322 7.13336 2.55556 8 2.55556ZM8 7.22222C9.73329 7.22222 11.1429 5.82689 11.1429 4.11111C11.1429 2.39533 9.73329 1 8 1C6.26671 1 4.85714 2.39533 4.85714 4.11111C4.85714 5.82689 6.26671 7.22222 8 7.22222Z" fill="black"/>
</svg>
