<svg width="12" height="14" viewBox="0 0 12 14" fill="none" xmlns="http://www.w3.org/2000/svg">
<path fill-rule="evenodd" clip-rule="evenodd" d="M11.5 13.2222C11.5 13.6516 11.1488 14 10.7143 14C10.2798 14 9.92857 13.6516 9.92857 13.2222C9.92857 11.0779 8.16621 9.33333 6 9.33333C3.83379 9.33333 2.07143 11.0779 2.07143 13.2222C2.07143 13.6516 1.72021 14 1.28571 14C0.851214 14 0.5 13.6516 0.5 13.2222C0.5 10.22 2.96793 7.77778 6 7.77778C9.03207 7.77778 11.5 10.22 11.5 13.2222ZM6 1.55556C6.86664 1.55556 7.57143 2.25322 7.57143 3.11111C7.57143 3.969 6.86664 4.66667 6 4.66667C5.13336 4.66667 4.42857 3.969 4.42857 3.11111C4.42857 2.25322 5.13336 1.55556 6 1.55556ZM6 6.22222C7.73329 6.22222 9.14286 4.82689 9.14286 3.11111C9.14286 1.39533 7.73329 0 6 0C4.26671 0 2.85714 1.39533 2.85714 3.11111C2.85714 4.82689 4.26671 6.22222 6 6.22222Z" fill="black"/>
</svg>
