<svg width="24" height="24" viewBox="0 0 24 24" fill="none" xmlns="http://www.w3.org/2000/svg">
<path fill-rule="evenodd" clip-rule="evenodd" d="M12 21.5C17.2467 21.5 21.5 17.2467 21.5 12C21.5 6.75329 17.2467 2.5 12 2.5C6.75329 2.5 2.5 6.75329 2.5 12C2.5 17.2467 6.75329 21.5 12 21.5ZM12 23C18.0751 23 23 18.0751 23 12C23 5.92487 18.0751 1 12 1C5.92487 1 1 5.92487 1 12C1 18.0751 5.92487 23 12 23ZM12 5.75C9.92893 5.75 8.25 7.42893 8.25 9.5C8.25 9.91421 7.91421 10.25 7.5 10.25C7.08579 10.25 6.75 9.91421 6.75 9.5C6.75 6.6005 9.1005 4.25 12 4.25C14.8995 4.25 17.25 6.6005 17.25 9.5C17.25 10.3598 16.8584 11.0826 16.3839 11.6793C15.9228 12.2592 15.3217 12.7944 14.7793 13.2774L14.7793 13.2774L14.7793 13.2774L14.7488 13.3046C14.1746 13.8159 13.6647 14.2733 13.2909 14.745C12.922 15.2106 12.75 15.6123 12.75 16V16.5C12.75 16.9142 12.4142 17.25 12 17.25C11.5858 17.25 11.25 16.9142 11.25 16.5V16C11.25 15.1377 11.6405 14.4126 12.1153 13.8134C12.579 13.2282 13.1841 12.6894 13.7292 12.204L13.7512 12.1844C14.3259 11.6726 14.8358 11.2161 15.2098 10.7458C15.5791 10.2813 15.75 9.8828 15.75 9.5C15.75 7.42893 14.0711 5.75 12 5.75ZM12 20C12.5523 20 13 19.5523 13 19C13 18.4477 12.5523 18 12 18C11.4477 18 11 18.4477 11 19C11 19.5523 11.4477 20 12 20Z" fill="black"/>
</svg>
