<svg width="24" height="24" viewBox="0 0 24 24" fill="none" xmlns="http://www.w3.org/2000/svg">
<path d="M12 9.52632C12.4416 9.52632 12.8 9.88 12.8 10.3158C12.8 10.7516 12.4416 11.1053 12 11.1053C11.5584 11.1053 11.2 10.7516 11.2 10.3158C11.2 9.88 11.5584 9.52632 12 9.52632ZM15.2 9.52632C15.6416 9.52632 16 9.88 16 10.3158C16 10.7516 15.6416 11.1053 15.2 11.1053C14.7584 11.1053 14.4 10.7516 14.4 10.3158C14.4 9.88 14.7584 9.52632 15.2 9.52632ZM8.8 9.52632C9.2416 9.52632 9.6 9.88 9.6 10.3158C9.6 10.7516 9.2416 11.1053 8.8 11.1053C8.3584 11.1053 8 10.7516 8 10.3158C8 9.88 8.3584 9.52632 8.8 9.52632ZM18.4 14.2632C18.4 14.6982 18.0408 15.0526 17.6 15.0526H9.2432C8.8088 15.0526 8.3816 15.1695 8.008 15.3905L5.6 16.8163V6.36842C5.6 5.93342 5.9592 5.57895 6.4 5.57895H17.6C18.0408 5.57895 18.4 5.93342 18.4 6.36842V14.2632ZM17.6 4H6.4C5.0768 4 4 5.06263 4 6.36842V18.2105C4 18.4947 4.1552 18.7576 4.4056 18.8974C4.528 18.9661 4.664 19 4.8 19C4.9424 19 5.0848 18.9629 5.212 18.8871L8.8312 16.7445C8.956 16.6703 9.0984 16.6316 9.2432 16.6316H17.6C18.9232 16.6316 20 15.5689 20 14.2632V6.36842C20 5.06263 18.9232 4 17.6 4Z" fill="white"/>
</svg>
