<svg width="24" height="24" viewBox="0 0 24 24" fill="none" xmlns="http://www.w3.org/2000/svg">
<path d="M12.5 5.62216L6.66667 8.82019V8.93795C6.66667 12.7873 8.805 16.3516 12.2483 18.2397L12.5 18.3777L12.7517 18.2397C16.195 16.3516 18.3333 12.7873 18.3333 8.93795V8.82019L12.5 5.62216ZM12.5 19.9995C12.2175 19.9995 11.935 19.9313 11.6842 19.7932L11.4317 19.6544C7.46417 17.4804 5 13.3736 5 8.93795V8.82019C5 8.2363 5.325 7.69382 5.84833 7.40552L11.6833 4.20749C12.1875 3.93138 12.8133 3.93057 13.3158 4.20668L19.15 7.40471C19.675 7.69382 20 8.2363 20 8.82019V8.93795C20 13.3736 17.5358 17.4804 13.5683 19.6544L13.3167 19.7924C13.065 19.9305 12.7825 19.9995 12.5 19.9995Z" fill="white"/>
</svg>
