<svg width="24" height="24" viewBox="0 0 24 24" fill="none" xmlns="http://www.w3.org/2000/svg">
<path d="M5.92367 11.6977C6.81648 12.0041 7.52768 12.7513 7.82529 13.6985L7.85729 13.7945C8.19809 14.7993 8.05969 15.8809 7.48848 16.6921C7.38448 16.8393 7.40768 17.0153 7.51728 17.0985L9.1749 18.3577C9.2333 18.4017 9.2901 18.4017 9.3253 18.3977C9.3653 18.3913 9.4237 18.3697 9.4709 18.3025L9.6557 18.0401C10.2069 17.2585 11.0949 16.7761 12.0325 16.7489C13.0853 16.7273 14.0309 17.2097 14.6197 18.0601L14.7141 18.1969C14.7613 18.2641 14.8189 18.2865 14.8597 18.2929C14.8949 18.3001 14.9525 18.2977 15.0101 18.2529L16.6589 17.0089C16.7741 16.9225 16.7997 16.7377 16.7141 16.6137L16.5061 16.3137C15.9701 15.5393 15.8109 14.5345 16.0805 13.6265C16.3733 12.6377 17.1181 11.8553 18.0742 11.5352L18.235 11.4808C18.3638 11.4384 18.4334 11.2784 18.3878 11.1312L17.7582 9.11443C17.7286 9.02003 17.6678 8.97763 17.6342 8.96003C17.5862 8.93523 17.5342 8.93123 17.4846 8.94803L17.2125 9.03843C16.2821 9.34804 15.2557 9.18003 14.4677 8.58723L14.3813 8.52243C13.6325 7.95923 13.1869 7.05122 13.1901 6.09441L13.1917 5.87041C13.1917 5.76401 13.1413 5.69761 13.1109 5.66721C13.0821 5.63761 13.0333 5.60241 12.9645 5.60241L10.9269 5.60001C10.8021 5.60001 10.7005 5.71921 10.6997 5.86641L10.6989 6.06001C10.6949 7.03202 10.2397 7.95683 9.4813 8.53523L9.3781 8.61363C8.54369 9.24803 7.45568 9.42724 6.47008 9.09123C6.43248 9.07843 6.39728 9.08083 6.36368 9.09843C6.33808 9.11123 6.29168 9.14403 6.26928 9.21683L5.61567 11.2936C5.56847 11.4448 5.64607 11.6025 5.79247 11.6529L5.92367 11.6977ZM9.2925 20.0001C8.90369 20.0001 8.52609 19.8737 8.20769 19.6313L6.55008 18.3729C5.75807 17.7729 5.58287 16.6185 6.15888 15.8001C6.45808 15.3761 6.51968 14.8313 6.34368 14.3145L6.29968 14.1801C6.15328 13.7145 5.81887 13.3529 5.40527 13.2113H5.40447L5.27407 13.1657C4.29966 12.8321 3.77966 11.7993 4.08926 10.8136L4.74207 8.73763C4.89007 8.26803 5.20927 7.88883 5.64127 7.67042C6.06368 7.45762 6.54128 7.42482 6.98768 7.57762C7.46688 7.74082 7.99889 7.65202 8.40929 7.34002L8.51249 7.26162C8.87729 6.98322 9.0973 6.53122 9.0989 6.05361L9.0997 5.86081C9.1037 4.83361 9.9237 4 10.9261 4H10.9293L12.9669 4.0024C13.4485 4.0032 13.9029 4.1936 14.2453 4.5384C14.5997 4.89441 14.7933 5.37041 14.7917 5.87841L14.7901 6.10161C14.7885 6.55442 14.9957 6.98242 15.3453 7.24482L15.4309 7.30962C15.7981 7.58562 16.2765 7.66482 16.7061 7.52082L16.9773 7.43042C17.439 7.27682 17.9302 7.31442 18.363 7.53602C18.807 7.76323 19.135 8.15443 19.2854 8.63843L19.915 10.6552C20.219 11.6297 19.6926 12.6809 18.743 12.9985L18.5822 13.0521C18.1214 13.2073 17.759 13.5913 17.6142 14.0809C17.4814 14.5297 17.5582 15.0233 17.8214 15.4025L18.0294 15.7025C18.6006 16.5281 18.4182 17.6865 17.623 18.2857L15.9741 19.5305C15.5781 19.8297 15.0925 19.9505 14.6053 19.8729C14.1141 19.7937 13.6853 19.5217 13.3981 19.1073L13.3037 18.9697C13.0237 18.5665 12.5757 18.3217 12.1061 18.3481C11.6357 18.3609 11.2293 18.5841 10.9637 18.9617L10.7789 19.2241C10.4893 19.6345 10.0597 19.9025 9.5709 19.9793C9.4773 19.9937 9.3845 20.0001 9.2925 20.0001ZM12.0015 10.8C11.3399 10.8 10.8015 11.3384 10.8015 12C10.8015 12.6616 11.3399 13.2 12.0015 13.2C12.6631 13.2 13.2015 12.6616 13.2015 12C13.2015 11.3384 12.6631 10.8 12.0015 10.8ZM12.0015 14.8C10.4575 14.8 9.20146 13.544 9.20146 12C9.20146 10.456 10.4575 9.19995 12.0015 9.19995C13.5455 9.19995 14.8015 10.456 14.8015 12C14.8015 13.544 13.5455 14.8 12.0015 14.8Z" fill="white"/>
</svg>
