<svg width="24" height="24" viewBox="0 0 24 24" fill="none" xmlns="http://www.w3.org/2000/svg">
<path fill-rule="evenodd" clip-rule="evenodd" d="M18.0324 17.75C18.0324 18.4408 17.4778 19 16.7943 19C16.1108 19 15.5561 18.4408 15.5561 17.75C15.5561 17.0592 16.1108 16.5 16.7943 16.5C17.4778 16.5 18.0324 17.0592 18.0324 17.75ZM9.77807 17.75C9.77807 18.4408 9.22337 19 8.53991 19C7.85645 19 7.30175 18.4408 7.30175 17.75C7.30175 17.0592 7.85645 16.5 8.53991 16.5C9.22337 16.5 9.77807 17.0592 9.77807 17.75ZM15.8715 13.1667H9.58326L8.23202 8.16667H18.3478L15.8715 13.1667ZM19.7518 7.29C19.4489 6.795 18.9239 6.5 18.3478 6.5H7.78216L7.27286 4.61417C7.17463 4.25167 6.84859 4 6.47631 4H4.82544C4.36897 4 4 4.37333 4 4.83333C4 5.29333 4.36897 5.66667 4.82544 5.66667H5.84568L8.15608 14.2192C8.25431 14.5817 8.58036 14.8333 8.95263 14.8333H16.3816C16.6944 14.8333 16.98 14.655 17.1203 14.3725L19.8245 8.91167C20.082 8.39083 20.0548 7.785 19.7518 7.29Z" fill="white"/>
</svg>
