<svg width="24" height="24" viewBox="0 0 24 24" fill="none" xmlns="http://www.w3.org/2000/svg">
<path d="M8.29412 18.125C8.29412 18.6062 7.92353 19 7.47059 19L5.82353 19C5.40294 19 5.05336 18.6605 5.00557 18.2267L5 18.125L5 5.875C5 5.39375 5.37059 5 5.82353 5L7.47059 5C7.92353 5 8.29412 5.39375 8.29412 5.875C8.29412 6.35625 7.92353 6.75 7.47059 6.75L6.64706 6.75L6.64706 17.25L7.47059 17.25C7.92353 17.25 8.29412 17.6437 8.29412 18.125ZM19 12C19 12.4839 18.6311 12.875 18.1765 12.875L11.5882 12.875L13.0706 14.975C13.3448 15.3617 13.2699 15.9104 12.9059 16.2C12.5419 16.4905 12.0255 16.4118 11.7529 16.025L9.28235 12.525C9.17282 12.3701 9.11765 12.1846 9.11765 12C9.11765 11.8241 9.16788 11.6482 9.26753 11.4969L11.5849 7.99687C11.8468 7.60137 12.3607 7.506 12.7321 7.78425C13.1044 8.0625 13.1941 8.60762 12.9322 9.00312L11.5242 11.1276C11.5453 11.1259 11.5667 11.125 11.5882 11.125L18.1765 11.125C18.6311 11.125 19 11.5161 19 12Z" fill="white"/>
</svg>
