<svg width="18" height="18" viewBox="0 0 18 18" fill="none" xmlns="http://www.w3.org/2000/svg">
<rect width="18" height="18" fill="white"/>
<path d="M12.2 8.2H9.8V5.8C9.8 5.3576 9.4416 5 9 5C8.5584 5 8.2 5.3576 8.2 5.8V9C8.2 9.4424 8.5584 9.8 9 9.8H12.2C12.6424 9.8 13 9.4424 13 9C13 8.5576 12.6424 8.2 12.2 8.2ZM9 15.4C5.4712 15.4 2.6 12.5288 2.6 9C2.6 5.4712 5.4712 2.6 9 2.6C12.5288 2.6 15.4 5.4712 15.4 9C15.4 12.5288 12.5288 15.4 9 15.4ZM9 1C4.5888 1 1 4.5888 1 9C1 13.4112 4.5888 17 9 17C13.4112 17 17 13.4112 17 9C17 4.5888 13.4112 1 9 1Z" fill="black"/>
</svg>
