<svg width="16" height="16" viewBox="0 0 16 16" fill="none" xmlns="http://www.w3.org/2000/svg">
<path d="M10.4 7.4H8.6V5.6C8.6 5.2682 8.3312 5 8 5C7.6688 5 7.4 5.2682 7.4 5.6V8C7.4 8.3318 7.6688 8.6 8 8.6H10.4C10.7318 8.6 11 8.3318 11 8C11 7.6682 10.7318 7.4 10.4 7.4ZM8 12.8C5.3534 12.8 3.2 10.6466 3.2 8C3.2 5.3534 5.3534 3.2 8 3.2C10.6466 3.2 12.8 5.3534 12.8 8C12.8 10.6466 10.6466 12.8 8 12.8ZM8 2C4.6916 2 2 4.6916 2 8C2 11.3084 4.6916 14 8 14C11.3084 14 14 11.3084 14 8C14 4.6916 11.3084 2 8 2Z" fill="#5B5B5B"/>
</svg>
