<svg width="32" height="32" viewBox="0 0 32 32" fill="none" xmlns="http://www.w3.org/2000/svg">
<rect width="32" height="32" rx="8" fill="#FA4504" fill-opacity="0.2"/>
<path d="M21.4567 11.9905V11.992V11.9905ZM13.2876 20.4978C13.3063 20.4978 13.3265 20.4985 13.3452 20.5C17.7747 20.4723 20.4184 17.209 20.4184 14.0545C20.4184 13.768 20.5708 13.5828 20.7062 13.4185C20.829 13.2685 21.0196 13.0375 21.1892 12.7045C20.5724 12.6985 20.0217 12.4345 19.7013 12.073C19.366 11.7273 18.8846 11.5158 18.365 11.5008C17.8641 11.4813 17.3531 11.6673 16.9736 12.0145C16.468 12.4773 16.2518 13.1755 16.4089 13.8355L16.6119 14.6898L15.705 14.7513C13.3592 14.9208 11.7336 13.9525 10.6175 12.9505C10.6222 14.4655 11.1441 16.4868 13.5163 17.7903L14.2614 18.1998L13.766 18.8755C13.2503 19.5798 12.4741 20.029 11.6838 20.3163C12.2057 20.4363 12.7424 20.4978 13.2775 20.4978H13.2869H13.2876ZM13.2876 22C13.2674 22 13.2456 21.9993 13.2254 21.9978C11.9786 21.9895 10.7279 21.7098 9.60483 21.1855C9.18249 20.9875 8.94371 20.554 9.01138 20.104C9.07982 19.6488 9.44227 19.2918 9.91205 19.2183C10.7248 19.0893 11.3992 18.8598 11.8876 18.553C8.87215 16.3788 8.95149 13.1238 9.14671 11.7453C9.20427 11.3418 9.50216 11.005 9.90505 10.8873C10.3142 10.7673 10.7381 10.8873 11.0181 11.194C12.2127 12.4998 13.4066 13.156 14.8067 13.2558C14.8471 12.382 15.2329 11.5398 15.9026 10.9263C16.5847 10.3015 17.4768 9.97455 18.4132 10.0015C19.3505 10.0293 20.22 10.4103 20.8609 11.074C20.9263 11.146 21.1705 11.2765 21.4653 11.149C21.8518 10.9818 22.2913 11.0373 22.6117 11.2953C22.9314 11.551 23.0675 11.9538 22.9679 12.346C22.7167 13.3443 22.2205 13.9878 21.9701 14.296C21.8394 18.1248 18.6131 22 13.2876 22Z" fill="#FA4504"/>
</svg>
