<svg width="109" height="24" viewBox="0 0 109 24" fill="none" xmlns="http://www.w3.org/2000/svg">
<path d="M75.5042 5.99524H59.3928V5.99763H55.3691V24L59.3976 20.388V10.0248H71.0103L75.5042 5.99524Z" fill="#FA4504"/>
<path d="M82.2032 0.00244141H65.3887H65.3863H61.3626V18.6456L65.3887 15.036V4.03204H77.7092L82.2032 0.00244141Z" fill="#FA4504"/>
<path d="M22.748 4.47604V23.9976H26.7741V0.00244141L22.748 4.47604Z" fill="white"/>
<path d="M21.3564 0L13.3882 8.8536L5.42007 0H1.39401L0 0.00240234L5.42007 6.0216L10.6794 11.8632L13.3882 14.8728L16.097 11.8632L21.3564 6.0216L26.774 0.00240234L25.3848 0H21.3564Z" fill="white"/>
<path d="M0 0.00158691L2.4785 2.75439L0 0.00158691Z" fill="white"/>
<path d="M0 23.9976H4.02606V7.41843L0 2.94482V23.9976Z" fill="white"/>
<path d="M53.9799 0H49.9515L41.9833 8.8536L34.0152 0H29.9891L28.5951 0.00240234L34.0152 6.0216L39.2745 11.8632L39.9703 12.6384L43.9987 17.1144V17.112V15.9696V12.6336L44.6921 11.8632L49.9515 6.0216L55.3691 0.00240234L53.9799 0Z" fill="white"/>
<path d="M39.9703 23.9977H43.9987V20.3857L39.9703 15.9097V23.9977Z" fill="white"/>
<path d="M109 4.02915V0.00195312L89.8078 0.00195312V4.02915L109 4.02915Z" fill="white"/>
<path d="M84.0243 23.9975H88.0503V10.1663L84.0243 5.69275V23.9975Z" fill="white"/>
<path d="M88.0503 7.22404V0.00244141H84.0242V2.75044L88.0503 7.22404Z" fill="white"/>
<path d="M101.417 11.1384V0.00244141H97.3909V6.66484L101.417 11.1384Z" fill="white"/>
<path d="M97.391 9.60962V23.9976H101.417V14.0808L97.391 9.60962Z" fill="white"/>
</svg>
