<svg width="159" height="35" viewBox="0 0 159 35" fill="none" xmlns="http://www.w3.org/2000/svg">
<path d="M109.793 8.74304H86.3647V8.74653H80.5138V35L86.3717 29.7325V14.6195H103.258L109.793 8.74304Z" fill="#FA4504"/>
<path d="M119.534 0.00341797H95.0835H95.08H89.2291V27.1914L95.0835 21.9274V5.87991H112.999L119.534 0.00341797Z" fill="#FA4504"/>
<path d="M33.0785 6.52741V34.9964H38.9329V0.00341797L33.0785 6.52741Z" fill="white"/>
<path d="M31.0549 0L19.4682 12.9115L7.88147 0H2.02706L0 0.00350342L7.88147 8.7815L15.5292 17.3005L19.4682 21.6895L23.4072 17.3005L31.0549 8.7815L38.9329 0.00350342L36.9128 0H31.0549Z" fill="white"/>
<path d="M0 0.00341797L3.60405 4.01792L0 0.00341797Z" fill="white"/>
<path d="M0 34.9967H5.85441V10.8187L0 4.29468V34.9967Z" fill="white"/>
<path d="M78.4937 0H72.6358L61.0491 12.9115L49.4623 0H43.6079L41.5809 0.00350342L49.4623 8.7815L57.1101 17.3005L58.1219 18.431L63.9798 24.9585V24.955V23.289V18.424L64.988 17.3005L72.6358 8.7815L80.5137 0.00350342L78.4937 0Z" fill="white"/>
<path d="M58.1218 34.9967H63.9797V29.7292L58.1218 23.2017V34.9967Z" fill="white"/>
<path d="M158.5 5.87592V0.00292969L130.592 0.00292969V5.87592L158.5 5.87592Z" fill="white"/>
<path d="M122.182 34.9964H128.036V14.8259L122.182 8.30188V34.9964Z" fill="white"/>
<path d="M128.036 10.5349V0.00341797H122.182V4.01091L128.036 10.5349Z" fill="white"/>
<path d="M147.473 16.2434V0.00341797H141.619V9.71941L147.473 16.2434Z" fill="white"/>
<path d="M141.619 14.0139V34.9964H147.473V20.5344L141.619 14.0139Z" fill="white"/>
</svg>
