<svg width="73" height="16" viewBox="0 0 73 16" fill="none" xmlns="http://www.w3.org/2000/svg">
<path d="M50.2207 3.9968H39.5044V3.99839H36.8281V16L39.5076 13.592V6.68319H47.2317L50.2207 3.9968Z" fill="#FA4504"/>
<path d="M54.6765 0.00160217H43.4926H43.491H40.8147V12.4304L43.4926 10.024V2.688H51.6874L54.6765 0.00160217Z" fill="#FA4504"/>
<path d="M15.1306 2.984V15.9984H17.8085V0.00160217L15.1306 2.984Z" fill="black"/>
<path d="M14.2049 0L8.905 5.9024L3.60509 0H0.927205L0 0.00160156L3.60509 4.0144L7.10325 7.9088L8.905 9.9152L10.7068 7.9088L14.2049 4.0144L17.8084 0.00160156L16.8844 0H14.2049Z" fill="black"/>
<path d="M0 0.00160217L1.64854 1.8368L0 0.00160217Z" fill="black"/>
<path d="M0 15.9984H2.67789V4.9456L0 1.9632V15.9984Z" fill="black"/>
<path d="M35.9042 0H33.2247L27.9248 5.9024L22.6249 0H19.947L19.0198 0.00160156L22.6249 4.0144L26.123 7.9088L26.5858 8.4256L29.2653 11.4096V11.408V10.6464V8.4224L29.7265 7.9088L33.2247 4.0144L36.8282 0.00160156L35.9042 0Z" fill="black"/>
<path d="M26.5859 15.9984H29.2654V13.5904L26.5859 10.6064V15.9984Z" fill="black"/>
<path d="M72.5 2.68617V0.00137329L59.7346 0.00137329V2.68617L72.5 2.68617Z" fill="black"/>
<path d="M55.8877 15.9984H58.5656V6.77759L55.8877 3.7952V15.9984Z" fill="black"/>
<path d="M58.5656 4.816V0.00160217H55.8877V1.8336L58.5656 4.816Z" fill="black"/>
<path d="M67.4562 7.4256V0.00160217H64.7783V4.4432L67.4562 7.4256Z" fill="black"/>
<path d="M64.7783 6.4064V15.9984H67.4562V9.3872L64.7783 6.4064Z" fill="black"/>
</svg>
